<?xml version="1.0" encoding="UTF-8" standalone="no"?> <!DOCTYPE svg PUBLIC "-//W3C//DTD SVG 1.1//EN" "http://www.w3.org/Graphics/SVG/1.1/DTD/svg11.dtd"><svg width="100%" height="100%" viewBox="0 0 88 68" version="1.1" xmlns="http://www.w3.org/2000/svg" xmlns:xlink="http://www.w3.org/1999/xlink" xml:space="preserve" xmlns:serif="http://www.serif.com/" style="fill-rule:evenodd;clip-rule:evenodd;stroke-linejoin:round;stroke-miterlimit:2"><g transform="matrix(0.824049,0,0,0.824049,-401.186,-433.611)"><g id="Logo"><g id="Shape-now" serif:id="Shape now"><g transform="matrix(2.26212,0,0,2.26212,-624.099,389.983)"><clipPath id="_clip1"><rect x="491.109" y="73.09" width="47.208" height="23.611"/></clipPath><g clip-path="url(#_clip1)"><path d="M514.713,49.493C527.74,49.493 538.317,60.07 538.317,73.097C538.317,86.124 527.74,96.701 514.713,96.701C501.686,96.701 491.109,86.124 491.109,73.097C491.109,60.07 501.686,49.493 514.713,49.493ZM514.713,57.003C523.595,57.003 530.807,64.215 530.807,73.097C530.807,81.979 523.595,89.191 514.713,89.191C505.831,89.191 498.619,81.979 498.619,73.097C498.619,64.215 505.831,57.003 514.713,57.003Z" style="fill:#ffb703"/></g></g><g id="v" transform="matrix(1.23388,0,0,1.23388,-94.8528,465.127)"><path d="M514.713,49.493C527.74,49.493 538.317,60.07 538.317,73.097C538.317,86.124 527.74,96.701 514.713,96.701C501.686,96.701 491.109,86.124 491.109,73.097C491.109,60.07 501.686,49.493 514.713,49.493ZM514.713,63.262C520.141,63.262 524.548,67.669 524.548,73.097C524.548,78.525 520.141,82.932 514.713,82.932C509.285,82.932 504.878,78.525 504.878,73.097C504.878,67.669 509.285,63.262 514.713,63.262Z" style="fill:#b8001c"/></g></g></g></g></svg>
