<?xml version="1.0" encoding="UTF-8" standalone="no"?> <!DOCTYPE svg PUBLIC "-//W3C//DTD SVG 1.1//EN" "http://www.w3.org/Graphics/SVG/1.1/DTD/svg11.dtd"><svg width="100%" height="100%" viewBox="0 0 296 91" version="1.1" xmlns="http://www.w3.org/2000/svg" xmlns:xlink="http://www.w3.org/1999/xlink" xml:space="preserve" xmlns:serif="http://www.serif.com/" style="fill-rule:evenodd;clip-rule:evenodd;stroke-linejoin:round;stroke-miterlimit:2"><g transform="matrix(0.824049,0,0,0.824049,-401.243,-424.894)"><g transform="matrix(1,0,0,1,0,0.143711)"><g id="New--Learning" serif:id="New  Learning" transform="matrix(1.62286,0,0,1.62286,606.232,613.076)"><path d="M7.979,-4.472L19.798,-4.472L19.798,0L2.412,0L2.412,-27.016L7.979,-27.016L7.979,-4.472Z" style="fill:#fff;fill-rule:nonzero"/><path d="M31.877,0.371C28.933,0.371 26.536,-0.532 24.687,-2.338C22.838,-4.144 21.913,-6.55 21.913,-9.556L21.913,-10.075C21.913,-12.091 22.303,-13.894 23.082,-15.484C23.861,-17.073 24.965,-18.298 26.394,-19.158C27.823,-20.017 29.452,-20.447 31.283,-20.447C34.029,-20.447 36.191,-19.581 37.768,-17.85C39.345,-16.118 40.134,-13.662 40.134,-10.483L40.134,-8.294L27.35,-8.294C27.523,-6.983 28.045,-5.931 28.917,-5.14C29.79,-4.348 30.894,-3.952 32.229,-3.952C34.295,-3.952 35.91,-4.701 37.072,-6.197L39.707,-3.247C38.903,-2.109 37.814,-1.222 36.441,-0.584C35.068,0.053 33.547,0.371 31.877,0.371ZM31.265,-16.105C30.201,-16.105 29.338,-15.747 28.676,-15.029C28.014,-14.312 27.591,-13.285 27.405,-11.949L34.864,-11.949L34.864,-12.376C34.84,-13.563 34.518,-14.482 33.899,-15.131C33.281,-15.781 32.403,-16.105 31.265,-16.105Z" style="fill:#fff;fill-rule:nonzero"/><path d="M54.811,0C54.563,-0.482 54.384,-1.082 54.272,-1.8C52.974,-0.353 51.285,0.371 49.207,0.371C47.24,0.371 45.611,-0.198 44.318,-1.336C43.025,-2.474 42.379,-3.909 42.379,-5.641C42.379,-7.768 43.167,-9.401 44.745,-10.539C46.322,-11.677 48.601,-12.252 51.582,-12.265L54.05,-12.265L54.05,-13.415C54.05,-14.343 53.812,-15.085 53.335,-15.642C52.859,-16.198 52.108,-16.477 51.081,-16.477C50.178,-16.477 49.47,-16.26 48.957,-15.827C48.443,-15.394 48.187,-14.8 48.187,-14.046L42.824,-14.046C42.824,-15.209 43.183,-16.285 43.9,-17.274C44.618,-18.264 45.632,-19.04 46.943,-19.603C48.255,-20.166 49.727,-20.447 51.359,-20.447C53.833,-20.447 55.797,-19.826 57.25,-18.583C58.704,-17.339 59.431,-15.592 59.431,-13.341L59.431,-4.639C59.443,-2.734 59.709,-1.293 60.229,-0.315L60.229,0L54.811,0ZM50.376,-3.729C51.168,-3.729 51.897,-3.906 52.565,-4.258C53.233,-4.611 53.728,-5.084 54.05,-5.678L54.05,-9.129L52.046,-9.129C49.362,-9.129 47.933,-8.201 47.76,-6.346L47.741,-6.03C47.741,-5.362 47.976,-4.812 48.446,-4.379C48.916,-3.946 49.56,-3.729 50.376,-3.729Z" style="fill:#fff;fill-rule:nonzero"/><path d="M74.831,-15.048C74.101,-15.147 73.458,-15.196 72.901,-15.196C70.873,-15.196 69.543,-14.51 68.912,-13.137L68.912,0L63.55,0L63.55,-20.076L68.615,-20.076L68.764,-17.683C69.84,-19.526 71.33,-20.447 73.235,-20.447C73.829,-20.447 74.386,-20.367 74.905,-20.206L74.831,-15.048Z" style="fill:#fff;fill-rule:nonzero"/><path d="M82.346,-20.076L82.513,-17.757C83.948,-19.55 85.871,-20.447 88.283,-20.447C90.411,-20.447 91.994,-19.823 93.033,-18.573C94.072,-17.324 94.604,-15.456 94.629,-12.97L94.629,0L89.267,0L89.267,-12.84C89.267,-13.978 89.019,-14.804 88.524,-15.317C88.03,-15.83 87.207,-16.087 86.057,-16.087C84.548,-16.087 83.416,-15.444 82.661,-14.157L82.661,0L77.299,0L77.299,-20.076L82.346,-20.076Z" style="fill:#fff;fill-rule:nonzero"/><path d="M104.352,0L98.971,0L98.971,-20.076L104.352,-20.076L104.352,0ZM98.655,-25.271C98.655,-26.076 98.924,-26.737 99.462,-27.257C100,-27.776 100.733,-28.036 101.661,-28.036C102.576,-28.036 103.306,-27.776 103.851,-27.257C104.395,-26.737 104.667,-26.076 104.667,-25.271C104.667,-24.455 104.392,-23.787 103.841,-23.268C103.291,-22.748 102.564,-22.488 101.661,-22.488C100.758,-22.488 100.031,-22.748 99.481,-23.268C98.931,-23.787 98.655,-24.455 98.655,-25.271Z" style="fill:#fff;fill-rule:nonzero"/><path d="M113.703,-20.076L113.87,-17.757C115.305,-19.55 117.229,-20.447 119.641,-20.447C121.768,-20.447 123.352,-19.823 124.391,-18.573C125.43,-17.324 125.962,-15.456 125.986,-12.97L125.986,0L120.624,0L120.624,-12.84C120.624,-13.978 120.377,-14.804 119.882,-15.317C119.387,-15.83 118.564,-16.087 117.414,-16.087C115.905,-16.087 114.773,-15.444 114.019,-14.157L114.019,0L108.656,0L108.656,-20.076L113.703,-20.076Z" style="fill:#fff;fill-rule:nonzero"/><path d="M129.271,-10.187C129.271,-13.267 130.003,-15.747 131.469,-17.627C132.935,-19.507 134.911,-20.447 137.397,-20.447C139.599,-20.447 141.313,-19.693 142.537,-18.184L142.76,-20.076L147.621,-20.076L147.621,-0.668C147.621,1.089 147.222,2.616 146.424,3.915C145.626,5.214 144.504,6.203 143.057,6.884C141.609,7.564 139.915,7.904 137.973,7.904C136.501,7.904 135.066,7.611 133.668,7.023C132.27,6.435 131.213,5.678 130.495,4.75L132.87,1.484C134.206,2.981 135.826,3.729 137.731,3.729C139.154,3.729 140.261,3.349 141.053,2.588C141.844,1.828 142.24,0.748 142.24,-0.649L142.24,-1.726C141.003,-0.328 139.377,0.371 137.36,0.371C134.948,0.371 132.997,-0.572 131.506,-2.458C130.016,-4.345 129.271,-6.847 129.271,-9.964L129.271,-10.187ZM134.633,-9.797C134.633,-7.979 134.998,-6.553 135.728,-5.52C136.457,-4.487 137.459,-3.971 138.733,-3.971C140.366,-3.971 141.535,-4.583 142.24,-5.808L142.24,-14.25C141.523,-15.475 140.366,-16.087 138.771,-16.087C137.484,-16.087 136.473,-15.561 135.737,-14.51C135.001,-13.458 134.633,-11.887 134.633,-9.797Z" style="fill:#fff;fill-rule:nonzero"/></g><g id="New--Learning1" serif:id="New  Learning" transform="matrix(1.62286,0,0,1.62286,604.606,560.625)"><path d="M23.527,0L21.245,0L5.715,-23.119L5.715,0L3.414,0L3.414,-27.016L5.715,-27.016L21.264,-3.878L21.264,-27.016L23.527,-27.016L23.527,0Z" style="fill:#fff;fill-rule:nonzero"/><path d="M37.647,0.371C35.94,0.371 34.397,-0.049 33.018,-0.891C31.639,-1.732 30.566,-2.904 29.799,-4.407C29.032,-5.91 28.648,-7.595 28.648,-9.463L28.648,-10.261C28.648,-12.19 29.023,-13.928 29.771,-15.475C30.519,-17.021 31.562,-18.236 32.897,-19.121C34.233,-20.005 35.681,-20.447 37.239,-20.447C39.676,-20.447 41.609,-19.615 43.038,-17.952C44.466,-16.288 45.181,-14.015 45.181,-11.133L45.181,-9.89L30.856,-9.89L30.856,-9.463C30.856,-7.187 31.509,-5.291 32.814,-3.776C34.119,-2.261 35.761,-1.503 37.74,-1.503C38.928,-1.503 39.976,-1.719 40.885,-2.152C41.794,-2.585 42.62,-3.278 43.362,-4.23L44.754,-3.173C43.121,-0.81 40.752,0.371 37.647,0.371ZM37.239,-18.555C35.569,-18.555 34.162,-17.942 33.018,-16.718C31.874,-15.493 31.178,-13.848 30.931,-11.782L42.973,-11.782L42.973,-12.023C42.911,-13.953 42.36,-15.524 41.321,-16.736C40.282,-17.949 38.922,-18.555 37.239,-18.555Z" style="fill:#fff;fill-rule:nonzero"/><path d="M54.31,-4.62L54.644,-2.895L55.089,-4.713L59.913,-20.076L61.806,-20.076L66.574,-4.843L67.094,-2.728L67.521,-4.676L71.64,-20.076L73.94,-20.076L68.096,0L66.203,0L61.045,-15.92L60.804,-17.015L60.563,-15.901L55.497,0L53.604,0L47.778,-20.076L50.061,-20.076L54.31,-4.62Z" style="fill:#fff;fill-rule:nonzero"/></g></g><g id="Shape-now" serif:id="Shape now" transform="matrix(1,0,0,1,0.385997,4.02282)"><g transform="matrix(2.26212,0,0,2.26212,-624.099,389.983)"><clipPath id="_clip1"><rect x="491.109" y="73.09" width="47.208" height="23.611"/></clipPath><g clip-path="url(#_clip1)"><path d="M514.713,49.493C527.74,49.493 538.317,60.07 538.317,73.097C538.317,86.124 527.74,96.701 514.713,96.701C501.686,96.701 491.109,86.124 491.109,73.097C491.109,60.07 501.686,49.493 514.713,49.493ZM514.713,57.003C523.595,57.003 530.807,64.215 530.807,73.097C530.807,81.979 523.595,89.191 514.713,89.191C505.831,89.191 498.619,81.979 498.619,73.097C498.619,64.215 505.831,57.003 514.713,57.003Z" style="fill:#ffb703"/></g></g><g id="v" transform="matrix(1.23388,0,0,1.23388,-94.8528,465.127)"><path d="M514.713,49.493C527.74,49.493 538.317,60.07 538.317,73.097C538.317,86.124 527.74,96.701 514.713,96.701C501.686,96.701 491.109,86.124 491.109,73.097C491.109,60.07 501.686,49.493 514.713,49.493ZM514.713,63.262C520.141,63.262 524.548,67.669 524.548,73.097C524.548,78.525 520.141,82.932 514.713,82.932C509.285,82.932 504.878,78.525 504.878,73.097C504.878,67.669 509.285,63.262 514.713,63.262Z" style="fill:#b8001c"/></g></g></g></svg>
